#!OML:ASF F:\VICON\USERDATA\INSTALL\rory3\rory3.ASF
:FULLY-SPECIFIED
:DEGREES
317
root 0.330872 18.0578 33.2601 -2.55173 -3.00078 -5.37518
lowerback 10.506 -0.248057 4.04597
upperback 0.182506 0.3414 3.10811
thorax -5.70986 0.0989566 0.927288
lowerneck -16.0606 -2.70635 -1.62602
upperneck 21.5382 -3.28979 -0.27989
head 9.47474 -1.70027 -0.246968
rclavicle -1.52816e-014 -6.36111e-015
rhumerus -32.2859 -23.3202 -76.093
rradius 22.4312
rwrist 9.78534
rhand -15.7873 21.9984
rfingers 7.12502
rthumb 10.4053 -7.72415
lclavicle -1.52816e-014 -6.36111e-015
lhumerus -29.9912 1.63776 83.0427
lradius 28.5191
lwrist 4.71047
lhand -27.5912 18.6152
lfingers 7.12502
lthumb -0.991078 48.5926
rfemur -12.8755 7.65426 31.2928
rtibia 28.8114
rfoot -9.56304 -7.06165
rtoes 9.60225
lfemur -16.9601 0.459453 -14.2408
ltibia 70.89
lfoot 1.01676 -14.5787
ltoes -9.20132
318
root 0.31878 18.0512 33.4222 -2.67456 -3.16703 -5.4446
lowerback 10.6458 -0.131054 4.05802
upperback 0.246137 0.502212 3.07443
thorax -5.71866 0.17748 0.860486
lowerneck -15.7741 -2.64095 -1.82694
upperneck 21.2546 -3.24268 0.111601
head 9.33308 -1.65136 -0.0660842
rclavicle 1.59897e-014 1.23246e-014
rhumerus -31.7709 -23.1153 -76.37
rradius 22.3889
rwrist 9.45443
rhand -16.1253 22.6632
rfingers 7.12502
rthumb 10.0793 -7.07539
lclavicle 1.59897e-014 1.23246e-014
lhumerus -30.3001 2.03395 82.9298
lradius 28.6456
lwrist 4.87614
lhand -26.7765 21.2472
lfingers 7.12502
lthumb -0.204252 51.2269
rfemur -12.2032 7.74102 31.5335
rtibia 28.9656
rfoot -10.1711 -7.18988
rtoes 9.29677
lfemur -18.0522 0.769085 -14.0535
ltibia 71.2176
lfoot 0.0210698 -13.5428
ltoes -8.57125
319
root 0.315619 18.0426 33.5908 -2.61764 -3.20105 -5.11812
lowerback 10.5328 -0.0528188 3.78312
upperback 0.224926 0.558018 2.92448
thorax -5.67698 0.210769 0.848484
lowerneck -15.7235 -2.63892 -1.80847
upperneck 21.286 -3.23497 0.0663965
head 9.33342 -1.65147 -0.0832085
rclavicle 1.49089e-015 1.03368e-014
rhumerus -31.2405 -23.0659 -76.5702
rradius 22.2815
rwrist 9.49722
rhand -16.0229 22.5764
rfingers 7.12502
rthumb 10.1781 -7.15739
lclavicle 1.49089e-015 1.03368e-014
lhumerus -30.6118 2.40529 82.9046
lradius 28.3756
lwrist 5.90363
lhand -26.7541 20.8909
lfingers 7.12502
lthumb -0.18255 50.8706
rfemur -11.7723 7.52843 31.2391
rtibia 29.1677
rfoot -10.8531 -7.08074
rtoes 9.1803
lfemur -18.9785 0.645118 -14.3446
ltibia 71.3421
lfoot -1.29109 -12.1014
ltoes -9.54153
320
root 0.307172 18.0349 33.7479 -2.59636 -3.27639 -5.36532
lowerback 10.5441 0.0343465 4.07588
upperback 0.286673 0.705596 2.90158
thorax -5.61285 0.276329 0.637267
lowerneck -16.2897 -2.71976 -1.45568
upperneck 21.7443 -3.31753 -0.411719
head 9.58404 -1.71288 -0.329899
rclavicle 1.44616e-014 1.82882e-014
rhumerus -30.632 -22.6242 -76.9975
rradius 22.3699
rwrist 9.09968
rhand -15.6874 22.3959
rfingers 7.12502
rthumb 10.5017 -7.32181
lclavicle 1.44616e-014 1.82882e-014
lhumerus -30.7245 2.7554 82.8606
lradius 27.9853
lwrist 6.93389
lhand -27.0421 19.2119
lfingers 7.12502
lthumb -0.460735 49.1911
rfemur -11.2943 7.48104 31.6089
rtibia 29.3779
rfoot -11.4958 -7.15287
rtoes 8.76924
lfemur -20.0836 0.60517 -13.936
ltibia 71.3241
lfoot -2.94992 -11.2717
ltoes -14.3969
321
root 0.304106 18.0153 33.8964 -2.68785 -3.1565 -5.52685
lowerback 10.818 0.0367318 4.29182
upperback 0.238643 0.754536 2.88223
thorax -5.81414 0.290954 0.488495
lowerneck -17.2445 -2.84813 -1.11895
upperneck 22.8831 -3.44545 -0.952962
head 10.1514 -1.80314 -0.621354
rclavicle 1.82633e-014 -1.07344e-014
rhumerus -30.2956 -21.9406 -77.3666
rradius 22.5815
rwrist 8.45372
rhand -16.3026 22.8458
rfingers 7.12502
rthumb 9.90825 -6.90099
lclavicle 1.82633e-014 -1.07344e-014
lhumerus -31.115 3.18328 82.7407
lradius 27.8498
lwrist 7.33632
lhand -27.2163 18.087
lfingers 7.12502
lthumb -0.62895 48.0658
rfemur -10.7372 7.24585 31.8533
rtibia 29.5598
rfoot -12.1542 -7.21629
rtoes 8.57165
lfemur -21.0258 0.510779 -13.7266
ltibia 71.1512
lfoot -5.34158 -10.5503
ltoes -24.6521
322
root 0.29948 18.0149 34.05 -2.79975 -3.13603 -5.57278
lowerback 11.0918 0.098997 4.41102
upperback 0.170168 0.868466 2.78689
thorax -6.03506 0.338056 0.303303
lowerneck -15.913 -2.7088 -1.37146
upperneck 21.9354 -3.33174 -0.414282
head 9.57922 -1.71356 -0.342627
rclavicle 1.04238e-014 4.45278e-014
rhumerus -29.9173 -21.5142 -77.681
rradius 22.5562
rwrist 7.99322
rhand -16.8218 23.0667
rfingers 7.12502
rthumb 9.40724 -6.70337
lclavicle 1.04238e-014 4.45278e-014
lhumerus -31.5287 3.36629 82.5424
lradius 27.893
lwrist 7.52003
lhand -26.8675 18.2967
lfingers 7.12502
lthumb -0.292157 48.2762
rfemur -10.0259 7.18873 31.9958
rtibia 29.5993
rfoot -12.6972 -7.34916
rtoes 8.53564
lfemur -22.3452 0.140262 -13.5803
ltibia 70.5778
lfoot -4.5146 -10.0585
ltoes -17.5239
323
root 0.29286 17.9941 34.2056 -2.8095 -3.28212 -6.09388
lowerback 11.0613 0.162471 4.95226
upperback 0.288466 1.0172 2.85437
thorax -5.88167 0.400225 0.0469045
lowerneck -15.6564 -2.75102 -1.66895
upperneck 21.5507 -3.42144 0.0309683
head 9.41156 -1.7304 -0.143388
rclavicle 3.35449e-015 -5.1684e-015
rhumerus -29.1308 -20.9352 -78.1761
rradius 22.5032
rwrist 7.44132
rhand -16.8936 23.3483
rfingers 7.12502
rthumb 9.33802 -6.4249
lclavicle 3.35449e-015 -5.1684e-015
lhumerus -31.5395 3.58544 82.4036
lradius 27.9224
lwrist 7.58109
lhand -25.8238 21.2838
lfingers 7.12502
lthumb 0.715962 51.2623
rfemur -9.4302 7.28159 32.6743
rtibia 29.6784
rfoot -13.3424 -7.49425
rtoes 8.90651
lfemur -23.4914 0.186827 -12.8789
ltibia 69.946
lfoot -4.45869 -8.61937
ltoes -8.11006
324
root 0.287103 17.9802 34.3607 -2.73271 -3.36284 -6.03552
lowerback 10.8954 0.253952 4.90952
upperback 0.425072 1.10916 2.78061
thorax -5.63958 0.45161 -0.0204899
lowerneck -15.8152 -2.80024 -1.72395
upperneck 21.3964 -3.47348 0.0448879
head 9.38903 -1.75684 -0.137102
rclavicle 6.28657e-015 1.19271e-014
rhumerus -28.4154 -20.0484 -78.7213
rradius 22.8404
rwrist 6.41309
rhand -16.6847 23.0586
rfingers 7.12502
rthumb 9.53957 -6.70549
lclavicle 6.28657e-015 1.19271e-014
lhumerus -31.3975 3.95378 82.29
lradius 27.4619
lwrist 7.04451
lhand -25.7564 21.558
lfingers 7.12502
lthumb 0.781058 51.5363
rfemur -8.97725 7.28144 32.6873
rtibia 29.722
rfoot -13.8368 -7.57113
rtoes 8.57058
lfemur -24.6375 0.226924 -12.8995
ltibia 69.0397
lfoot -4.7615 -7.48696
ltoes -5.46616
325
root 0.279074 17.9756 34.5148 -2.75839 -3.51898 -5.84304
lowerback 11.0027 0.392261 4.67267
upperback 0.465915 1.26381 2.69573
thorax -5.65379 0.532815 -0.00188958
lowerneck -15.9675 -2.77724 -1.69388
upperneck 21.4743 -3.42275 -0.0524457
head 9.44164 -1.74086 -0.172149
rclavicle -4.12478e-015 2.06736e-014
rhumerus -28.117 -18.6834 -79.2531
rradius 23.5904
rwrist 4.80969
rhand -16.6825 23.0731
rfingers 7.12502
rthumb 9.54173 -6.69084
lclavicle -4.12478e-015 2.06736e-014
lhumerus -31.6255 4.39945 82.1658
lradius 27.2152
lwrist 6.36069
lhand -26.0362 20.3496
lfingers 7.12502
lthumb 0.510785 50.3288
rfemur -8.43779 7.39275 32.6053
rtibia 29.7779
rfoot -14.1906 -7.82316
rtoes 7.92104
lfemur -25.5845 0.275679 -13.0784
ltibia 67.922
lfoot -5.44078 -6.67011
ltoes -7.94943
